<?xml version="1.0" encoding="UTF-8"?>
<!DOCTYPE svg PUBLIC "-//W3C//DTD SVG 1.1//EN" "http://www.w3.org/Graphics/SVG/1.1/DTD/svg11.dtd">
<!-- Creator: CorelDRAW X5 -->
<svg xmlns="http://www.w3.org/2000/svg" xml:space="preserve" width="50.7998mm" height="13.2926mm" style="shape-rendering:geometricPrecision; text-rendering:geometricPrecision; image-rendering:optimizeQuality; fill-rule:evenodd; clip-rule:evenodd"
viewBox="0 0 5080 1329"
 xmlns:xlink="http://www.w3.org/1999/xlink"
 xmlns:dc="http://purl.org/dc/elements/1.1/"
 xmlns:cc="http://creativecommons.org/ns#"
 xmlns:rdf="http://www.w3.org/1999/02/22-rdf-syntax-ns#"
 xmlns:svg="http://www.w3.org/2000/svg"
 xmlns:sodipodi="http://sodipodi.sourceforge.net/DTD/sodipodi-0.dtd"
 xmlns:inkscape="http://www.inkscape.org/namespaces/inkscape"
 version="1.1"
 inkscape:version="0.92.3 (2405546, 2018-03-11)"
 sodipodi:docname="vivo_new.svg">
 <defs>
  <style type="text/css">
   <![CDATA[
    .fil0 {fill:#415FFF}
   ]]>
  </style>
 </defs>
 <g id="Layer_x0020_1">
  <metadata id="CorelCorpID_0Corel-Layer"/>
 </g>
 <g id="svg2">
  <metadata id="CorelCorpID_1Corel-Layer"/>
  <sodipodi:namedview id="base" pagecolor="#ffffff" bordercolor="#666666" borderopacity="1.0" inkscape:pageopacity="0.0" inkscape:pageshadow="2" inkscape:zoom="0.12374369" inkscape:cx="1738.1865" inkscape:cy="1671.4264" inkscape:document-units="mm" inkscape:current-layer="layer1" showgrid="false" fit-margin-top="0" fit-margin-left="0" fit-margin-right="0" fit-margin-bottom="0" inkscape:window-width="1366" inkscape:window-height="745" inkscape:window-x="-8" inkscape:window-y="-8" inkscape:window-maximized="1"/>
  <path class="fil0" d="M4574 1108l-437 0c-246,0 -267,-202 -267,-264 0,-62 22,-264 267,-264l437 0c246,0 267,202 267,264 0,62 -22,264 -267,264m-1014 -716l-142 0c-61,0 -73,10 -97,45 -24,34 -430,647 -430,647 -13,19 -27,26 -44,26 -17,0 -31,-8 -44,-26 0,0 -407,-613 -430,-647 -23,-34 -36,-45 -97,-45l-142 0c-33,0 -48,25 -27,56l486 728c75,109 131,154 255,154 124,0 179,-44 255,-154l486 -728c21,-31 6,-56 -27,-56m-1873 59c0,-43 17,-59 59,-59l104 0c42,0 59,17 59,59l0 819c0,43 -17,59 -59,59l-104 0c-42,0 -59,-17 -59,-59l0 -819m-9 -259c-34,-34 -34,-61 0,-94l72 -72c34,-34 61,-34 94,0l72 72c34,34 34,61 0,94l-72 72c-34,34 -61,34 -94,0l-72 -72 0 0m2904 166l-439 0c-456,0 -497,372 -497,486 0,114 41,486 497,486l439 0c456,0 497,-372 497,-486 0,-114 -41,-486 -497,-486zm-3121 34l-142 0c-61,0 -73,10 -97,45 -23,34 -430,647 -430,647 -13,19 -27,26 -44,26 -17,0 -31,-8 -44,-26 0,0 -406,-613 -430,-647 -23,-34 -36,-45 -97,-45l-142 0c-37,0 -48,25 -27,56 21,31 485,728 485,728 75,109 131,154 254,154 124,0 179,-44 254,-154l485 -728c21,-31 9,-56 -27,-56z"/>
 </g>
</svg>
